{"title":"Atlanta S01E02 Streets On Lock 720p AMZN WEBRip HEVC 2CH x265","uid":15783474,"size":187828807,"categoryP":"video","categoryS":"hd___tv_shows","magnet":"?xt=urn:btih:07a8dba3c9860b3ce31d9a3995f544d29ad05be0&amp;dn=Atlanta+S01E02+Streets+On+Lock+720p+AMZN+WEBRip+HEVC+2CH+x265&amp;tr=udp%3A%2F%2Ftracker.leechers-paradise.org%3A6969&amp;tr=udp%3A%2F%2Fzer0day.ch%3A1337&amp;tr=udp%3A%2F%2Fopen.demonii.com%3A1337&amp;tr=udp%3A%2F%2Ftracker.coppersurfer.tk%3A6969&amp;tr=udp%3A%2F%2Fexodus.desync.com%3A6969","seeders":3,"leechers":4,"uploader":"nayhtut","files":1,"time":1473300350,"description":"Source:  Atlanta E02 Streets On Lock 1080p AMZN WEBRip DD5.1 x264-NTb (2.4 GB)\r\n\r\nComplete name                            : Atlanta.S01E02.Streets.On.Lock.720p.AMZN.WEBRip.HEVC.2CH.x265.mkv\r\nFormat                                   : Matroska\r\nFormat version                           : Version 4 / Version 2\r\nFile size                                : 179 MiB\r\nDuration                                 : 24mn 56s\r\nOverall bit rate                         : 1 004 Kbps\r\nWriting application                      : Lavf57.25.100\r\nWriting library                          : Lavf57.25.100\r\n\r\nVideo\r\n\r\nID                                       : 1\r\nFormat                                   : V_MPEGH/ISO/HEVC\r\nCodec ID                                 : V_MPEGH/ISO/HEVC\r\nDuration                                 : 24mn 56s\r\nBit rate                                 : 792 Kbps\r\nWidth                                    : 1 280 pixels\r\nHeight                                   : 720 pixels\r\nDisplay aspect ratio                     : 16:9\r\nFrame rate                               : 25.000 fps\r\nBits/(Pixel*Frame)                       : 0.035\r\nStream size                              : 141 MiB (79%)\r\nWriting library                          : Lavc57.48.101 libx265\r\nDefault                                  : Yes\r\nForced                                   : No\r\nDURATION                                 : 00:24:56.651000000\r\n\r\nAudio\r\n\r\nID                                       : 2\r\nFormat                                   : AC-3\r\nFormat/Info                              : Audio Coding 3\r\nMode extension                           : CM (complete main)\r\nFormat settings, Endianness              : Big\r\nCodec ID                                 : A_AC3\r\nDuration                                 : 24mn 56s\r\nBit rate mode                            : Constant\r\nBit rate                                 : 192 Kbps\r\nChannel(s)                               : 2 channels\r\nChannel positions                        : Front: L R\r\nSampling rate                            : 48.0 KHz\r\nBit depth                                : 16 bits\r\nCompression mode                         : Lossy\r\nStream size                              : 34.3 MiB (19%)\r\nWriting library                          : Lavc57.24.102 ac3\r\nLanguage                                 : English\r\nDefault                                  : Yes\r\nForced                                   : No\r\nDURATION                                 : 00:24:56.671000000","torrent":{"xt":"urn:btih:07a8dba3c9860b3ce31d9a3995f544d29ad05be0","amp;dn":"Atlanta+S01E02+Streets+On+Lock+720p+AMZN+WEBRip+HEVC+2CH+x265","amp;tr":["udp%3A%2F%2Ftracker.leechers-paradise.org%3A6969","udp%3A%2F%2Fzer0day.ch%3A1337","udp%3A%2F%2Fopen.demonii.com%3A1337","udp%3A%2F%2Ftracker.coppersurfer.tk%3A6969","udp%3A%2F%2Fexodus.desync.com%3A6969"],"infoHash":"07a8dba3c9860b3ce31d9a3995f544d29ad05be0","infoHashBuffer":{"type":"Buffer","data":[7,168,219,163,201,134,11,60,227,29,154,57,149,245,68,210,154,208,91,224]},"announce":[],"urlList":[]}}